<?xml version="1.0" standalone="no"?>
<!DOCTYPE svg PUBLIC "-//W3C//DTD SVG 20010904//EN"
 "http://www.w3.org/TR/2001/REC-SVG-20010904/DTD/svg10.dtd">
<svg version="1.0" xmlns="http://www.w3.org/2000/svg"
 width="512.000000pt" height="512.000000pt" viewBox="0 0 512.000000 512.000000"
 preserveAspectRatio="xMidYMid meet">
<metadata>
Created by potrace 1.14, written by Peter Selinger 2001-2017
</metadata>
<g transform="translate(0.000000,512.000000) scale(0.100000,-0.100000)"
fill="#000000" stroke="none">
<path d="M2461 5031 c-50 -9 -77 -36 -86 -84 -4 -18 -5 -182 -3 -364 3 -319 4
-333 23 -353 19 -19 250 -103 628 -230 l157 -53 78 29 c42 15 172 64 289 109
l212 82 116 109 c64 60 122 113 130 118 17 13 127 -75 260 -208 346 -347 561
-762 650 -1256 26 -145 32 -491 11 -659 -64 -501 -290 -963 -646 -1322 -194
-196 -384 -332 -633 -455 -341 -167 -700 -244 -1077 -231 -175 6 -464 48 -487
71 -3 3 9 86 27 184 23 129 29 185 22 198 -6 11 -80 107 -166 214 -86 107
-156 198 -156 201 0 3 21 21 48 40 98 70 122 98 122 141 0 51 -35 88 -83 88
-28 0 -59 -18 -153 -87 -171 -125 -400 -278 -543 -363 l-125 -74 -78 83 c-203
214 -372 469 -469 706 -42 103 -61 125 -111 125 -53 0 -70 -19 -156 -177 -187
-340 -269 -595 -260 -803 6 -123 25 -176 90 -246 123 -134 320 -148 632 -43
216 72 544 243 823 431 56 37 105 68 107 68 10 0 296 -362 295 -374 0 -6 -10
-65 -23 -131 -27 -145 -16 -142 -199 -61 -69 31 -139 56 -155 56 -43 0 -72
-28 -79 -75 -8 -60 18 -85 142 -139 312 -136 594 -201 925 -213 428 -14 820
74 1212 274 704 357 1184 1010 1319 1794 20 117 23 168 24 404 0 300 -9 383
-70 620 -68 265 -185 527 -333 750 -107 159 -170 237 -305 374 -205 208 -411
357 -677 490 -334 166 -638 240 -1015 246 -115 2 -230 0 -254 -4z m384 -181
c301 -28 585 -111 854 -251 179 -92 173 -75 57 -184 l-99 -93 -240 -91 -240
-91 -313 106 -314 107 0 253 0 254 93 0 c50 0 142 -5 202 -10z m-2278 -3640
c77 -118 173 -240 267 -337 l78 -83 -68 -31 c-259 -116 -492 -157 -585 -103
-59 35 -74 66 -77 165 -6 148 38 302 160 559 l59 125 55 -105 c31 -58 81 -143
111 -190z"/>
<path d="M1815 4896 c-356 -132 -629 -303 -894 -561 -425 -413 -682 -943 -742
-1530 -14 -143 -7 -513 11 -563 12 -33 53 -62 89 -62 11 0 33 11 49 25 l30 25
-5 233 c-4 157 -2 270 7 351 l13 118 31 -5 c17 -2 159 -22 316 -42 157 -21
289 -41 293 -45 7 -6 36 -790 37 -997 l0 -62 79 -99 c43 -54 86 -102 96 -106
36 -13 81 -6 102 17 47 51 40 85 -41 185 l-55 68 -16 544 c-9 310 -20 556 -26
571 -6 15 -21 31 -35 38 -13 6 -178 31 -367 56 -188 25 -349 49 -359 53 -15 6
-14 16 12 102 83 284 229 565 409 790 127 158 340 353 512 468 171 115 274
165 599 290 36 14 47 24 56 52 21 63 -18 121 -81 119 -16 0 -70 -15 -120 -33z"/>
<path d="M3880 3776 c-105 -30 -149 -63 -357 -269 l-202 -200 -463 168 c-420
153 -470 169 -541 173 -72 4 -83 2 -142 -27 -69 -34 -159 -122 -189 -185 -54
-115 -28 -265 61 -347 15 -15 161 -109 323 -209 162 -100 301 -187 307 -194
10 -9 -31 -55 -185 -208 l-197 -196 -135 29 c-149 31 -198 35 -222 17 -9 -7
-86 -112 -172 -232 -166 -233 -177 -258 -138 -305 10 -13 127 -65 301 -135
l284 -113 115 -287 c109 -274 116 -288 149 -304 26 -13 40 -14 62 -5 39 14
438 300 456 326 8 12 15 32 15 45 0 39 -72 376 -83 390 -8 10 33 57 178 202
104 104 192 187 196 185 3 -3 104 -162 224 -355 150 -242 229 -360 257 -384
58 -50 124 -70 212 -64 89 6 137 30 214 106 79 77 104 128 110 222 l4 75 -172
477 -173 478 199 202 c221 226 253 272 276 406 48 280 -178 536 -470 531 -31
0 -77 -6 -102 -13z"/>
</g>
</svg>
